<svg width="96" height="96" viewBox="0 0 96 96" fill="none" xmlns="http://www.w3.org/2000/svg">
<g clip-path="url(#clip0_346_1525)">
<path d="M94.7773 58.7347C100.704 32.8982 84.5641 7.14884 58.7276 1.222C32.8911 -4.70485 7.14176 11.4351 1.21491 37.2717C-4.71194 63.1082 11.428 88.8575 37.2646 94.7844C63.1011 100.711 88.8504 84.5712 94.7773 58.7347Z" fill="#B9C4E1"/>
<path d="M47.9965 67.718C58.3073 67.718 66.6658 56.1408 66.6658 41.8596C66.6658 27.5784 58.3073 16.0012 47.9965 16.0012C37.6857 16.0012 29.3271 27.5784 29.3271 41.8596C29.3271 56.1408 37.6857 67.718 47.9965 67.718Z" fill="white"/>
<path d="M47.7076 66.0653C32.0769 66.0653 18.1064 69.8081 8.8125 75.6927C17.5061 87.9734 31.8101 95.9926 48.004 95.9926C64.198 95.9926 78.2945 88.0846 87.0103 75.9521C77.7238 69.9192 63.568 66.0653 47.715 66.0653H47.7076Z" fill="white"/>
<path d="M50.8422 47.9963H45.1503C41.2126 47.9963 38.0205 51.1884 38.0205 55.1261V71.3497C38.0205 75.2874 41.2126 78.4795 45.1503 78.4795H50.8422C54.7799 78.4795 57.972 75.2874 57.972 71.3497V55.1261C57.972 51.1884 54.7799 47.9963 50.8422 47.9963Z" fill="white"/>
<path d="M32.2764 43.3271C32.8322 47.47 31.9132 51.0646 30.2234 51.3536C28.5262 51.6427 26.703 48.5151 26.1397 44.3647C25.5839 40.2217 26.5029 36.6272 28.1927 36.3381C29.8899 36.0491 31.7131 39.1767 32.2764 43.3271Z" fill="white"/>
<path d="M63.7237 43.3271C63.1678 47.47 64.0869 51.0646 65.7767 51.3536C67.4739 51.6427 69.2971 48.5151 69.8604 44.3647C70.4162 40.2217 69.4972 36.6272 67.8074 36.3381C66.1176 36.0491 64.287 39.1767 63.7237 43.3271Z" fill="white"/>
<path d="M29.9794 40.8443C29.3494 36.7013 28.7268 32.5658 28.0969 28.4228C27.8671 26.9183 27.6522 25.3322 28.2006 23.9166C28.7491 22.5011 30.3574 21.3671 31.7803 21.9007C31.2097 19.0177 34.3966 16.8906 37.1758 15.9346C41.8302 14.3337 46.8181 13.5184 51.6948 14.1484C56.5715 14.7784 61.337 16.9351 64.6277 20.5963C65.6653 21.7525 66.5621 23.0717 67.0587 24.5466C68.0147 27.3852 67.407 30.4906 66.7918 33.4181C66.3027 35.7453 65.8135 38.0799 65.3244 40.407C65.2132 40.9407 65.0872 41.4965 64.7241 41.9041C64.146 42.5489 63.1677 42.5934 62.3005 42.6008L34.5226 42.6601C32.7809 42.6601 30.5056 42.2377 30.2758 40.5108" fill="white"/>
</g>
<defs>
<clipPath id="clip0_346_1525">
<rect width="96" height="96" fill="white"/>
</clipPath>
</defs>
</svg>